<svg width="640" height="640" viewBox="0 0 640 640" fill="none" xmlns="http://www.w3.org/2000/svg">
  <rect width="640" height="640" rx="120" fill="#000000"/>
  <path d="M320 115C225.2 115 150 190.2 150 285C150 364 203.4 431.6 272 451C276.2 451.8 278 449.2 278 447.2C278 445.4 278 433 278 420.4C195 431.4 180 374.8 180 374.8C168 344.8 154 335 154 335C132 316.6 154.6 316.8 154.6 316.8C178.8 318.2 191.6 340.4 191.6 340.4C212 372.8 246.2 362.2 262.4 356.6C264.2 343.6 272 332.8 280.6 326.2C204.6 320.8 128 297.6 128 195.8C128 173.6 136.6 154 152.4 138.4C150.4 132 143.6 103.8 154.4 69.4C154.4 69.4 176.6 63.4 278 123.8C301.4 118.6 326.4 116 352 116C377.6 116 402.6 118.6 426 123.8C527.4 63.4 549.6 69.4 549.6 69.4C560.4 103.8 553.6 132 551.6 138.4C567.4 154 576 173.6 576 195.8C576 297.6 499.4 320.8 423.4 326.2C437.2 335.4 448 356.8 448 394.6C448 447.8 448 494.2 448 520.2C448 522.6 449.4 525.6 453.2 524.2C520.2 508.2 581 454.8 581 362.6C581 246.4 475.6 164.4 320 164.4C164.4 164.4 59 246.4 59 362.6C59 454.8 119.8 508.2 186.8 524.2C190.6 525.6 192 522.6 192 520.2C192 494.2 192 447.8 192 394.6C192 356.8 202.8 335.4 216.6 326.2C140.6 320.8 64 297.6 64 195.8C64 173.6 72.6 154 88.4 138.4C86.4 132 79.6 103.8 90.4 69.4C90.4 69.4 112.6 63.4 214 123.8C237.4 118.6 262.4 116 288 116C313.6 116 338.6 118.6 362 123.8C463.4 63.4 485.6 69.4 485.6 69.4C496.4 103.8 489.6 132 487.6 138.4C503.4 154 512 173.6 512 195.8C512 297.6 435.4 320.8 359.4 326.2C374 338.6 386 361.4 386 400.2C386 451.8 386 483.8 386 504.4C386 510 390 514.2 395.6 514.2C464.4 514.2 516 462.6 516 383.4C516 323.2 492.6 300.6 457.4 294.2C459.4 292 471.8 276.6 471.8 240.6C471.8 206.6 451.4 187.8 430.2 187.8C417.4 187.8 400.2 195.8 391.4 205.4C375.6 201 359.4 197.8 343 197.8C326.6 197.8 310.4 201 294.6 205.4C285.8 195.8 268.6 187.8 255.8 187.8C234.6 187.8 214.2 206.6 214.2 240.6C214.2 276.6 226.6 292 228.6 294.2C193.4 300.6 170 323.2 170 383.4C170 462.6 221.6 514.2 290.4 514.2C296 514.2 300 510 300 504.4C300 483.8 300 451.8 300 400.2C300 361.4 312 338.6 326.6 326.2C250.6 320.8 174 297.6 174 195.8C174 173.6 182.6 154 198.4 138.4C196.4 132 189.6 103.8 200.4 69.4C200.4 69.4 222.6 63.4 324 123.8C347.4 118.6 372.4 116 398 116C423.6 116 448.6 118.6 472 123.8C573.4 63.4 595.6 69.4 595.6 69.4" fill="#FFFFFF"/>
</svg>
